<svg xmlns="http://www.w3.org/2000/svg" viewBox="0 0 32 32">
  <rect fill="#0f0f0f" width="32" height="32"/>
  <rect fill="#00ff00" x="4" y="4" width="4" height="4"/>
  <rect fill="#00ff00" x="8" y="4" width="4" height="4"/>
  <rect fill="#00ff00" x="12" y="4" width="4" height="4"/>
  <rect fill="#00ff00" x="4" y="8" width="4" height="4"/>
  <rect fill="#00ff00" x="4" y="12" width="4" height="4"/>
  <rect fill="#00ff00" x="8" y="12" width="4" height="4"/>
  <rect fill="#00ff00" x="12" y="12" width="4" height="4"/>
  <rect fill="#00ff00" x="4" y="16" width="4" height="4"/>
  <rect fill="#00ff00" x="4" y="20" width="4" height="4"/>
  <rect fill="#00ffff" x="20" y="4" width="4" height="4"/>
  <rect fill="#00ffff" x="24" y="4" width="4" height="4"/>
  <rect fill="#00ffff" x="20" y="8" width="4" height="4"/>
  <rect fill="#00ffff" x="24" y="8" width="4" height="4"/>
  <rect fill="#00ffff" x="20" y="12" width="4" height="4"/>
  <rect fill="#00ffff" x="24" y="12" width="4" height="4"/>
  <rect fill="#00ffff" x="20" y="16" width="4" height="4"/>
  <rect fill="#00ffff" x="24" y="16" width="4" height="4"/>
  <rect fill="#00ffff" x="20" y="20" width="4" height="4"/>
  <rect fill="#00ffff" x="24" y="20" width="4" height="4"/>
</svg>
